<svg width="48" height="25" viewBox="0 0 48 25" fill="none" xmlns="http://www.w3.org/2000/svg">
<path fill-rule="evenodd" clip-rule="evenodd" d="M29.7964 5.06897C30.4626 4.80296 31.1702 4.71091 31.7829 4.85445C32.6892 5.06553 33.3042 5.72534 33.5154 6.71043C33.791 7.99687 33.1845 9.47155 31.8074 10.8638C30.7225 11.9605 29.2668 12.8729 27.7298 13.4362C27.0932 14.3874 26.2777 15.1538 25.2433 15.6197C25.3939 16.2032 25.9232 18.2049 27.2025 19.2393H20.9542C22.2333 18.2047 22.7626 16.2032 22.9135 15.6197C21.879 15.1538 21.0638 14.3876 20.4269 13.4365C18.8898 12.873 17.4342 11.9606 16.3493 10.864C14.9724 9.47179 14.3657 7.99695 14.6413 6.71059C14.8522 5.72535 15.4676 5.06554 16.3739 4.85445C16.9868 4.71091 17.6942 4.80296 18.3604 5.06897C18.3545 4.68754 18.3564 3.70167 18.3666 3.34454H29.7902C29.8004 3.70181 29.8021 4.68766 29.7964 5.06897ZM15.9359 7.02213C15.7728 7.78383 16.27 8.83957 17.2659 9.84699C17.8723 10.4603 18.6161 11.0051 19.4257 11.4511C18.8631 9.95698 18.5623 8.2731 18.4342 6.66067C17.8699 6.29105 17.1848 6.10445 16.6597 6.22723C16.2619 6.32022 16.0318 6.57248 15.9359 7.02213ZM28.7309 11.4513C29.5407 11.0051 30.2844 10.46 30.8908 9.84699C31.8866 8.83989 32.3839 7.78415 32.2207 7.02233C32.125 6.5727 31.8948 6.32042 31.4969 6.22743C30.9717 6.10482 30.2868 6.29142 29.7225 6.66087C29.5945 8.27326 29.2939 9.9573 28.7309 11.4513ZM28.2855 20.0188H19.8702V21.7533H28.2855V20.0188Z" fill="black"/>
<path fill-rule="evenodd" clip-rule="evenodd" d="M29.7964 5.06897C30.4626 4.80296 31.1702 4.71091 31.7829 4.85445C32.6892 5.06553 33.3042 5.72534 33.5154 6.71043C33.791 7.99687 33.1845 9.47155 31.8074 10.8638C30.7225 11.9605 29.2668 12.8729 27.7298 13.4362C27.0932 14.3874 26.2777 15.1538 25.2433 15.6197C25.3939 16.2032 25.9232 18.2049 27.2025 19.2393H20.9542C22.2333 18.2047 22.7626 16.2032 22.9135 15.6197C21.879 15.1538 21.0638 14.3876 20.4269 13.4365C18.8898 12.873 17.4342 11.9606 16.3493 10.864C14.9724 9.47179 14.3657 7.99695 14.6413 6.71059C14.8522 5.72535 15.4676 5.06554 16.3739 4.85445C16.9868 4.71091 17.6942 4.80296 18.3604 5.06897C18.3545 4.68754 18.3564 3.70167 18.3666 3.34454H29.7902C29.8004 3.70181 29.8021 4.68766 29.7964 5.06897ZM15.9359 7.02213C15.7728 7.78383 16.27 8.83957 17.2659 9.84699C17.8723 10.4603 18.6161 11.0051 19.4257 11.4511C18.8631 9.95698 18.5623 8.2731 18.4342 6.66067C17.8699 6.29105 17.1848 6.10445 16.6597 6.22723C16.2619 6.32022 16.0318 6.57248 15.9359 7.02213ZM28.7309 11.4513C29.5407 11.0051 30.2844 10.46 30.8908 9.84699C31.8866 8.83989 32.3839 7.78415 32.2207 7.02233C32.125 6.5727 31.8948 6.32042 31.4969 6.22743C30.9717 6.10482 30.2868 6.29142 29.7225 6.66087C29.5945 8.27326 29.2939 9.9573 28.7309 11.4513ZM28.2855 20.0188H19.8702V21.7533H28.2855V20.0188Z" fill="#3300FF"/>
<path d="M12.8465 18.4597C12.8465 18.4597 13.9718 17.5379 14.026 16.3287C14.0802 15.1195 13.0429 14.0809 13.0429 14.0809C13.0429 14.0809 11.9176 15.0027 11.8634 16.2119C11.8092 17.4211 12.8465 18.4597 12.8465 18.4597Z" fill="#3300FF"/>
<path d="M12.8465 18.4597C12.8465 18.4597 13.9718 17.5379 14.026 16.3287C14.0802 15.1195 13.0429 14.0809 13.0429 14.0809C13.0429 14.0809 11.9176 15.0027 11.8634 16.2119C11.8092 17.4211 12.8465 18.4597 12.8465 18.4597Z" fill="#3300FF"/>
<path d="M12.2924 18.8933C12.2924 18.8933 11.0519 19.6494 9.90721 19.2906C8.76252 18.9317 8.14714 17.5938 8.14714 17.5938C8.14714 17.5938 9.38767 16.8376 10.5324 17.1965C11.6771 17.5554 12.2924 18.8933 12.2924 18.8933Z" fill="#3300FF"/>
<path d="M12.2924 18.8933C12.2924 18.8933 11.0519 19.6494 9.90721 19.2906C8.76252 18.9317 8.14714 17.5938 8.14714 17.5938C8.14714 17.5938 9.38767 16.8376 10.5324 17.1965C11.6771 17.5554 12.2924 18.8933 12.2924 18.8933Z" fill="#3300FF"/>
<path d="M10.4401 14.9037C10.4401 14.9037 9.92855 13.5223 10.4815 12.4531C11.0344 11.384 12.4423 11.0319 12.4423 11.0319C12.4423 11.0319 12.9539 12.4133 12.4009 13.4825C11.848 14.5516 10.4401 14.9037 10.4401 14.9037Z" fill="#3300FF"/>
<path d="M10.4401 14.9037C10.4401 14.9037 9.92855 13.5223 10.4815 12.4531C11.0344 11.384 12.4423 11.0319 12.4423 11.0319C12.4423 11.0319 12.9539 12.4133 12.4009 13.4825C11.848 14.5516 10.4401 14.9037 10.4401 14.9037Z" fill="#3300FF"/>
<path d="M8.13375 7.21415C8.13375 7.21415 9.63411 5.98503 9.7064 4.37277C9.8103 2.05573 8.42827 0.645616 8.42827 0.645616C8.42827 0.645616 6.42899 1.8445 6.32383 4.18985C6.21867 6.53519 8.13375 7.21415 8.13375 7.21415Z" fill="#3300FF"/>
<path d="M8.13375 7.21415C8.13375 7.21415 9.63411 5.98503 9.7064 4.37277C9.8103 2.05573 8.42827 0.645616 8.42827 0.645616C8.42827 0.645616 6.42899 1.8445 6.32383 4.18985C6.21867 6.53519 8.13375 7.21415 8.13375 7.21415Z" fill="#3300FF"/>
<path d="M8.43313 11.0652C8.43313 11.0652 6.25153 11.6198 4.70762 10.567C3.16371 9.51425 2.84213 7.25271 2.84213 7.25271C2.84213 7.25271 5.02373 6.69805 6.56764 7.75084C8.11156 8.80362 8.43313 11.0652 8.43313 11.0652Z" fill="#3300FF"/>
<path d="M8.43313 11.0652C8.43313 11.0652 6.25153 11.6198 4.70762 10.567C3.16371 9.51425 2.84213 7.25271 2.84213 7.25271C2.84213 7.25271 5.02373 6.69805 6.56764 7.75084C8.11156 8.80362 8.43313 11.0652 8.43313 11.0652Z" fill="#3300FF"/>
<path d="M9.04887 10.8584C9.04887 10.8584 8.36764 9.01625 9.10547 7.59101C9.8433 6.16578 11.7208 5.69718 11.7208 5.69718C11.7208 5.69718 12.402 7.53935 11.6642 8.96459C10.9264 10.3898 9.04887 10.8584 9.04887 10.8584Z" fill="#3300FF"/>
<path d="M9.04887 10.8584C9.04887 10.8584 8.36764 9.01625 9.10547 7.59101C9.8433 6.16578 11.7208 5.69718 11.7208 5.69718C11.7208 5.69718 12.402 7.53935 11.6642 8.96459C10.9264 10.3898 9.04887 10.8584 9.04887 10.8584Z" fill="#3300FF"/>
<path d="M10.0336 15.1332C10.0336 15.1332 8.28723 15.9684 6.81451 15.3385C5.34178 14.7086 4.70042 12.8521 4.70042 12.8521C4.70042 12.8521 6.4468 12.0169 7.91953 12.6468C9.39225 13.2767 10.0336 15.1332 10.0336 15.1332Z" fill="#3300FF"/>
<path d="M10.0336 15.1332C10.0336 15.1332 8.28723 15.9684 6.81451 15.3385C5.34178 14.7086 4.70042 12.8521 4.70042 12.8521C4.70042 12.8521 6.4468 12.0169 7.91953 12.6468C9.39225 13.2767 10.0336 15.1332 10.0336 15.1332Z" fill="#3300FF"/>
<path fill-rule="evenodd" clip-rule="evenodd" d="M7.88901 3.47304C8.08726 3.45423 8.43867 7.40685 8.45881 7.60779C8.80693 11.08 10.5592 16.8911 15.3816 21.1194C15.5283 21.248 15.555 21.4699 15.4387 21.6254C15.3149 21.7908 15.0781 21.8169 14.9218 21.6801C9.91059 17.2938 8.10106 11.2684 7.74089 7.6759C7.72074 7.47496 7.69076 3.49185 7.88901 3.47304Z" fill="#3300FF"/>
<path fill-rule="evenodd" clip-rule="evenodd" d="M7.88901 3.47304C8.08726 3.45423 8.43867 7.40685 8.45881 7.60779C8.80693 11.08 10.5592 16.8911 15.3816 21.1194C15.5283 21.248 15.555 21.4699 15.4387 21.6254C15.3149 21.7908 15.0781 21.8169 14.9218 21.6801C9.91059 17.2938 8.10106 11.2684 7.74089 7.6759C7.72074 7.47496 7.69076 3.49185 7.88901 3.47304Z" fill="#3300FF"/>
<path d="M35.1532 18.4597C35.1532 18.4597 34.0279 17.5379 33.9737 16.3287C33.9195 15.1195 34.9569 14.0809 34.9569 14.0809C34.9569 14.0809 36.0821 15.0027 36.1364 16.2119C36.1906 17.4211 35.1532 18.4597 35.1532 18.4597Z" fill="#3300FF"/>
<path d="M35.1532 18.4597C35.1532 18.4597 34.0279 17.5379 33.9737 16.3287C33.9195 15.1195 34.9569 14.0809 34.9569 14.0809C34.9569 14.0809 36.0821 15.0027 36.1364 16.2119C36.1906 17.4211 35.1532 18.4597 35.1532 18.4597Z" fill="#3300FF"/>
<path d="M35.7073 18.8933C35.7073 18.8933 36.9479 19.6494 38.0925 19.2906C39.2372 18.9317 39.8526 17.5938 39.8526 17.5938C39.8526 17.5938 38.6121 16.8376 37.4674 17.1965C36.3227 17.5554 35.7073 18.8933 35.7073 18.8933Z" fill="#3300FF"/>
<path d="M35.7073 18.8933C35.7073 18.8933 36.9479 19.6494 38.0925 19.2906C39.2372 18.9317 39.8526 17.5938 39.8526 17.5938C39.8526 17.5938 38.6121 16.8376 37.4674 17.1965C36.3227 17.5554 35.7073 18.8933 35.7073 18.8933Z" fill="#3300FF"/>
<path d="M37.5597 14.9037C37.5597 14.9037 38.0712 13.5223 37.5183 12.4531C36.9654 11.384 35.5574 11.0319 35.5574 11.0319C35.5574 11.0319 35.0459 12.4133 35.5988 13.4825C36.1517 14.5516 37.5597 14.9037 37.5597 14.9037Z" fill="#3300FF"/>
<path d="M37.5597 14.9037C37.5597 14.9037 38.0712 13.5223 37.5183 12.4531C36.9654 11.384 35.5574 11.0319 35.5574 11.0319C35.5574 11.0319 35.0459 12.4133 35.5988 13.4825C36.1517 14.5516 37.5597 14.9037 37.5597 14.9037Z" fill="#3300FF"/>
<path d="M39.866 7.21415C39.866 7.21415 38.3656 5.98503 38.2934 4.37277C38.1895 2.05573 39.5715 0.645617 39.5715 0.645617C39.5715 0.645617 41.5708 1.8445 41.6759 4.18985C41.7811 6.53519 39.866 7.21415 39.866 7.21415Z" fill="#3300FF"/>
<path d="M39.866 7.21415C39.866 7.21415 38.3656 5.98503 38.2934 4.37277C38.1895 2.05573 39.5715 0.645617 39.5715 0.645617C39.5715 0.645617 41.5708 1.8445 41.6759 4.18985C41.7811 6.53519 39.866 7.21415 39.866 7.21415Z" fill="#3300FF"/>
<path d="M39.5666 11.0652C39.5666 11.0652 41.7482 11.6198 43.2921 10.567C44.8361 9.51425 45.1576 7.25271 45.1576 7.25271C45.1576 7.25271 42.976 6.69806 41.4321 7.75084C39.8882 8.80362 39.5666 11.0652 39.5666 11.0652Z" fill="#3300FF"/>
<path d="M39.5666 11.0652C39.5666 11.0652 41.7482 11.6198 43.2921 10.567C44.8361 9.51425 45.1576 7.25271 45.1576 7.25271C45.1576 7.25271 42.976 6.69806 41.4321 7.75084C39.8882 8.80362 39.5666 11.0652 39.5666 11.0652Z" fill="#3300FF"/>
<path d="M38.9509 10.8584C38.9509 10.8584 39.6321 9.01625 38.8943 7.59101C38.1565 6.16578 36.279 5.69718 36.279 5.69718C36.279 5.69718 35.5977 7.53935 36.3356 8.96459C37.0734 10.3898 38.9509 10.8584 38.9509 10.8584Z" fill="#3300FF"/>
<path d="M38.9509 10.8584C38.9509 10.8584 39.6321 9.01625 38.8943 7.59101C38.1565 6.16578 36.279 5.69718 36.279 5.69718C36.279 5.69718 35.5977 7.53935 36.3356 8.96459C37.0734 10.3898 38.9509 10.8584 38.9509 10.8584Z" fill="#3300FF"/>
<path d="M37.9661 15.1332C37.9661 15.1332 39.7125 15.9684 41.1852 15.3385C42.658 14.7086 43.2993 12.8521 43.2993 12.8521C43.2993 12.8521 41.553 12.0169 40.0802 12.6468C38.6075 13.2767 37.9661 15.1332 37.9661 15.1332Z" fill="#3300FF"/>
<path d="M37.9661 15.1332C37.9661 15.1332 39.7125 15.9684 41.1852 15.3385C42.658 14.7086 43.2993 12.8521 43.2993 12.8521C43.2993 12.8521 41.553 12.0169 40.0802 12.6468C38.6075 13.2767 37.9661 15.1332 37.9661 15.1332Z" fill="#3300FF"/>
<path fill-rule="evenodd" clip-rule="evenodd" d="M40.1107 3.47304C39.9125 3.45423 39.5611 7.40685 39.5409 7.60779C39.1928 11.08 37.4406 16.8912 32.6182 21.1194C32.4715 21.248 32.4447 21.4699 32.561 21.6254C32.6848 21.7908 32.9216 21.8169 33.0779 21.6801C38.0892 17.2938 39.8987 11.2684 40.2589 7.6759C40.279 7.47496 40.309 3.49185 40.1107 3.47304Z" fill="#3300FF"/>
<path fill-rule="evenodd" clip-rule="evenodd" d="M40.1107 3.47304C39.9125 3.45423 39.5611 7.40685 39.5409 7.60779C39.1928 11.08 37.4406 16.8912 32.6182 21.1194C32.4715 21.248 32.4447 21.4699 32.561 21.6254C32.6848 21.7908 32.9216 21.8169 33.0779 21.6801C38.0892 17.2938 39.8987 11.2684 40.2589 7.6759C40.279 7.47496 40.309 3.49185 40.1107 3.47304Z" fill="#3300FF"/>
</svg>
